# xmcd CD database file
#
# Track frame offsets:
#	183
#	30623
#	51523
#	74680
#	98348
#	109710
#	131565
#	155870
#
# Disc length: 2522 seconds
#
# Revision: 1
# Processed by: cddbd v1.5.2PL0 Copyright (c) Steve Scherf et al.
# Submitted via: CDex 1.51
#
DISCID=6e09d808
DTITLE=Kitaro - Silver Cloud
DYEAR=1984
DGENRE=Electronic
TTITLE0=Earth Born
TTITLE1=Flying Cloud
TTITLE2=Dreams Like Yesterday
TTITLE3=Never Let You Go
TTITLE4=Noah's Ark
TTITLE5=Return To Russia
TTITLE6=Panorama
TTITLE7=Straight Away To Orion
EXTD=YEAR: 1984
EXTT0=
EXTT1=
EXTT2=
EXTT3=
EXTT4=
EXTT5=
EXTT6=
EXTT7=
PLAYORDER=
